<svg width="24" height="24" viewBox="0 0 24 24" fill="none" xmlns="http://www.w3.org/2000/svg">
<ellipse cx="12" cy="12" rx="4" ry="10" stroke="#583F21" stroke-width="1.5"/>
<path d="M21.9962 11.7205C20.1938 13.2016 16.3949 14.2222 12 14.2222C7.60511 14.2222 3.80619 13.2016 2.00383 11.7205M21.9962 11.7205C21.8482 6.32691 17.4294 2 12 2C6.57061 2 2.15183 6.32691 2.00383 11.7205M21.9962 11.7205C21.9987 11.8134 22 11.9065 22 12C22 17.5228 17.5228 22 12 22C6.47715 22 2 17.5228 2 12C2 11.9065 2.00128 11.8134 2.00383 11.7205" stroke="#583F21" stroke-width="1.5"/>
</svg>
