<svg width="36" height="36" viewBox="0 0 36 36" fill="none" xmlns="http://www.w3.org/2000/svg">
<path fill-rule="evenodd" clip-rule="evenodd" d="M24.8743 17.5837C24.8743 21.6107 21.6098 24.8753 17.5827 24.8753C13.5556 24.8753 10.291 21.6107 10.291 17.5837C10.291 13.5566 13.5556 10.292 17.5827 10.292C21.6098 10.292 24.8743 13.5566 24.8743 17.5837ZM17.5827 26.1253C22.3001 26.1253 26.1243 22.3011 26.1243 17.5837C26.1243 12.8662 22.3001 9.04199 17.5827 9.04199C12.8653 9.04199 9.04102 12.8662 9.04102 17.5837C9.04102 22.3011 12.8653 26.1253 17.5827 26.1253ZM25.108 24.225C24.8639 23.981 24.4681 23.981 24.2241 24.225C23.98 24.4691 23.98 24.8649 24.2241 25.1089L25.8907 26.7756C26.1348 27.0197 26.5305 27.0197 26.7746 26.7756C27.0187 26.5315 27.0187 26.1358 26.7746 25.8917L25.108 24.225Z" fill="#583F21"/>
</svg>
