<svg width="36" height="36" viewBox="0 0 36 36" fill="none" xmlns="http://www.w3.org/2000/svg">
<path d="M14.667 19.6667H21.3337M14.667 16.3333H18.0003M26.3056 17.3472C26.3242 17.5623 26.3337 17.7801 26.3337 18C26.3337 22.1421 22.9758 25.5 18.8337 25.5H13.0003C11.1594 25.5 9.66699 24.0076 9.66699 22.1667V18C9.66699 13.8579 13.0249 10.5 17.167 10.5H18.8337C19.0536 10.5 19.2713 10.5095 19.4865 10.528M26.3337 13C26.3337 14.3807 25.2144 15.5 23.8337 15.5C22.4529 15.5 21.3337 14.3807 21.3337 13C21.3337 11.6193 22.4529 10.5 23.8337 10.5C25.2144 10.5 26.3337 11.6193 26.3337 13Z" stroke="#583F21" stroke-width="1.25" stroke-linecap="round"/>
</svg>
