<svg width="25" height="24" viewBox="0 0 25 24" fill="none" xmlns="http://www.w3.org/2000/svg">
<path d="M13.5276 2.00099C14.2573 1.99819 14.9871 2.00552 15.7166 2.02299L15.9106 2.02999C16.1346 2.03799 16.3556 2.04799 16.6226 2.05999C17.6866 2.10999 18.4126 2.27799 19.0496 2.52499C19.7096 2.77899 20.2656 3.12299 20.8216 3.67899C21.33 4.17859 21.7234 4.78293 21.9746 5.44999C22.2216 6.08699 22.3896 6.81399 22.4396 7.87799C22.4516 8.14399 22.4616 8.36599 22.4696 8.58999L22.4756 8.78399C22.4934 9.51318 22.501 10.2426 22.4986 10.972L22.4996 11.718V13.028C22.5021 13.7577 22.4944 14.4875 22.4766 15.217L22.4706 15.411C22.4626 15.635 22.4526 15.856 22.4406 16.123C22.3906 17.187 22.2206 17.913 21.9746 18.55C21.7242 19.2177 21.3307 19.8226 20.8216 20.322C20.3216 20.8303 19.7169 21.2237 19.0496 21.475C18.4126 21.722 17.6866 21.89 16.6226 21.94C16.3556 21.952 16.1346 21.962 15.9106 21.97L15.7166 21.976C14.9871 21.9938 14.2573 22.0014 13.5276 21.999L12.7816 22H11.4726C10.7429 22.0025 10.0131 21.9948 9.2836 21.977L9.0896 21.971C8.85221 21.9624 8.61487 21.9524 8.3776 21.941C7.3136 21.891 6.5876 21.721 5.9496 21.475C5.28228 21.2243 4.67784 20.8308 4.1786 20.322C3.66965 19.8223 3.27582 19.2175 3.0246 18.55C2.7776 17.913 2.6096 17.187 2.5596 16.123C2.54846 15.8857 2.53846 15.6484 2.5296 15.411L2.5246 15.217C2.50616 14.4875 2.49783 13.7577 2.4996 13.028V10.972C2.49681 10.2426 2.50414 9.51318 2.5216 8.78399L2.5286 8.58999C2.5366 8.36599 2.5466 8.14399 2.5586 7.87799C2.6086 6.81299 2.7766 6.08799 3.0236 5.44999C3.27497 4.78261 3.66956 4.17843 4.1796 3.67999C4.67849 3.17074 5.28256 2.77656 5.9496 2.52499C6.5876 2.27799 7.3126 2.10999 8.3776 2.05999L9.0896 2.02999L9.2836 2.02499C10.0128 2.00656 10.7422 1.99823 11.4716 1.99999L13.5276 2.00099ZM12.4996 7.00099C11.8371 6.99162 11.1794 7.11401 10.5646 7.36105C9.9498 7.6081 9.39025 7.97486 8.91845 8.44004C8.44664 8.90522 8.072 9.45952 7.81629 10.0707C7.56057 10.682 7.42889 11.3379 7.42889 12.0005C7.42889 12.663 7.56057 13.319 7.81629 13.9302C8.072 14.5414 8.44664 15.0958 8.91845 15.5609C9.39025 16.0261 9.9498 16.3929 10.5646 16.6399C11.1794 16.887 11.8371 17.0094 12.4996 17C13.8257 17 15.0975 16.4732 16.0351 15.5355C16.9728 14.5978 17.4996 13.3261 17.4996 12C17.4996 10.6739 16.9728 9.40213 16.0351 8.46445C15.0975 7.52677 13.8257 7.00099 12.4996 7.00099ZM12.4996 9.00099C12.8981 8.99364 13.2941 9.06578 13.6644 9.21319C14.0347 9.3606 14.3719 9.58033 14.6564 9.85953C14.9408 10.1387 15.1668 10.4718 15.321 10.8393C15.4753 11.2068 15.5548 11.6014 15.5549 12C15.5549 12.3986 15.4756 12.7931 15.3214 13.1607C15.1673 13.5283 14.9414 13.8614 14.6571 14.1407C14.3727 14.42 14.0356 14.6399 13.6653 14.7874C13.2951 14.9349 12.8991 15.0072 12.5006 15C11.705 15 10.9419 14.6839 10.3793 14.1213C9.81667 13.5587 9.5006 12.7956 9.5006 12C9.5006 11.2043 9.81667 10.4413 10.3793 9.87867C10.9419 9.31606 11.705 8.99999 12.5006 8.99999L12.4996 9.00099ZM17.7496 5.50099C17.427 5.5139 17.1219 5.65114 16.8982 5.88396C16.6745 6.11678 16.5496 6.42712 16.5496 6.74999C16.5496 7.07285 16.6745 7.38319 16.8982 7.61601C17.1219 7.84884 17.427 7.98607 17.7496 7.99899C18.0811 7.99899 18.3991 7.86729 18.6335 7.63287C18.8679 7.39845 18.9996 7.08051 18.9996 6.74899C18.9996 6.41747 18.8679 6.09952 18.6335 5.8651C18.3991 5.63068 18.0811 5.49899 17.7496 5.49899V5.50099Z" fill="#583F21"/>
</svg>
