<svg width="539" height="541" viewBox="0 0 539 541" fill="none" xmlns="http://www.w3.org/2000/svg">
<path d="M517.585 295.313L498.472 292.944C493.247 292.296 489.32 288.862 490.2 281.762C491.08 274.662 495.727 272.29 500.952 272.938L520.065 275.307C522.521 275.611 523.33 275.304 523.634 272.847L524.617 272.969L523.421 282.615L522.439 282.493C522.743 280.037 522.023 279.63 519.566 279.326L499.337 276.819C492.728 276 491.303 279.813 491.049 281.867C490.794 283.921 491.245 287.967 497.854 288.787L518.083 291.294C520.545 291.554 521.348 291.291 521.653 288.834L522.635 288.956L521.749 296.101C521.257 300.076 521.116 303.776 517.725 306.621L516.258 302.358C519.16 301.992 520.136 301.07 520.446 298.57C520.75 296.113 520.041 295.617 517.585 295.313Z" fill="#383727"/>
<path d="M488.398 349.503L486.961 353.29C479.724 350.543 477.142 344.413 479.664 337.766C482.171 331.161 488.892 328.417 495.286 330.844C500.629 332.872 504.592 337.649 504.425 345.19C504.387 346.812 504.962 346.693 506.63 345.594L510.596 343.007C511.678 342.311 512.553 340.766 513.016 339.546L513.32 338.747L514.245 339.098C514.254 339.583 514.024 341.71 513.769 342.383C513.258 343.729 512.328 345.927 510.047 347.371L499.931 353.736C498.906 354.406 498.319 355.193 497.856 356.414L497.6 357.087L496.675 356.735C496.712 356.509 496.85 354.877 496.978 354.54C497.09 354.246 497.264 351.376 500.248 349.476L501.33 348.78C502.925 347.749 503.408 346.729 503.283 344.901C503.016 340.66 499.044 336.795 493.996 334.879C487.643 332.468 482.188 333.526 480.448 338.112C478.755 342.571 480.993 346.693 488.398 349.503Z" fill="#383727"/>
<path d="M451.383 398.219L452.089 393.704C453.964 393.013 455.865 392.123 456.769 390.779C457.347 389.92 457.774 389.285 458.078 388.351C457.937 386.303 458.595 384.035 460.228 381.608C464.223 375.672 469.44 375.657 473.808 378.597L489.823 389.374C491.876 390.756 492.7 390.822 494.082 388.768L494.903 389.321L489.477 397.385L488.655 396.832C490.037 394.779 489.615 394.116 487.562 392.734L470.613 381.329C465.088 377.611 462.093 380.368 460.938 382.086C459.782 383.803 458.355 387.616 463.881 391.334L480.83 402.739C482.883 404.121 483.706 404.187 485.088 402.133L485.909 402.686L480.483 410.75L479.662 410.197C481.043 408.144 480.622 407.481 478.569 406.099L462.553 395.322C460.574 393.99 459.109 392.299 458.456 390.287C458.119 390.385 457.855 390.696 457.478 391.256C455.871 393.645 453.858 397.281 451.383 398.219Z" fill="#383727"/>
<path d="M419.189 434.008L418.515 433.283L425.633 426.664L426.307 427.389C424.494 429.074 424.785 429.849 426.47 431.661L429.013 434.397C429.657 435.089 429.887 434.874 430.163 434.311C430.334 433.967 431.325 432.125 433.038 430.531C438.278 425.659 443.328 426.862 446.913 430.717L454.359 438.725C456.045 440.537 456.862 440.822 458.675 439.136L459.349 439.861L452.231 446.48L451.557 445.755C453.369 444.07 453.079 443.295 451.394 441.483L443.182 432.651C438.647 427.774 435.136 429.748 433.62 431.157C432.368 432.322 430.055 435.517 433.426 439.142L435.264 441.119C436.949 442.932 437.701 443.277 439.513 441.592L440.188 442.317L433.07 448.936L432.395 448.211C434.208 446.525 433.984 445.689 432.298 443.877L423.504 434.419C421.819 432.607 421.001 432.322 419.189 434.008Z" fill="#383727"/>
<path d="M380.111 462.688L379.607 461.836L387.976 456.892L388.479 457.745C386.348 459.004 386.389 459.868 387.647 461.999L398.015 479.55C401.403 485.284 405.293 484.083 407.075 483.03C408.857 481.978 411.786 479.15 408.398 473.416L398.031 455.865C396.772 453.735 396.111 453.236 393.981 454.495L393.477 453.643L401.846 448.699L402.349 449.551C400.218 450.81 400.259 451.675 401.517 453.806L411.313 470.387C413.991 474.92 413.67 480.127 407.51 483.766C401.349 487.405 396.634 485.174 393.956 480.641L384.161 464.059C382.902 461.928 382.241 461.43 380.111 462.688Z" fill="#383727"/>
<path d="M341.265 489.781L340.938 488.799C343.756 487.861 348.637 487.422 350.442 492.844C352.119 497.882 356.018 498.482 360.074 497.131C360.671 496.932 360.899 496.762 360.601 495.865L355.058 479.214C354.276 476.866 353.735 476.24 351.387 477.021L351.075 476.082L360.297 473.012L360.609 473.951C358.261 474.733 358.118 475.587 358.9 477.935L366.532 500.862C367.314 503.21 367.94 503.808 370.288 503.026L370.601 503.966L361.379 507.036L361.066 506.096C363.414 505.315 363.472 504.489 362.69 502.141L361.795 499.451C361.354 498.128 361.169 497.857 359.547 498.398C353.783 500.316 348.532 499.93 346.557 493.995C345.434 490.623 342.93 489.227 341.265 489.781Z" fill="#383727"/>
<path d="M314.487 497.528L314.388 497.041C313.598 493.235 310.626 488.543 304.947 489.18C301.146 489.607 297.88 492.781 298.543 498.684C299.13 503.916 302.517 506.66 308.375 506.002C311.773 505.621 312.713 505.515 313.115 505.47C314.725 505.289 314.888 504.728 314.773 503.699L314.612 502.268L318.637 501.816L319.435 508.927L315.41 509.378L315.234 507.813C315.119 506.785 314.835 506.273 313.225 506.454L309.111 506.916C303.611 507.533 301.433 510.313 301.93 514.74C302.487 519.704 306.35 521.036 309.122 520.725C312.342 520.364 315.037 517.752 315.022 513.588L319.271 513.111C318.476 517.728 314.896 520.937 309.217 521.575C301.884 522.398 298.317 518.859 297.905 515.192C297.569 512.196 298.837 508.567 303.641 507.394C303.815 507.329 303.581 507.265 303.581 507.265C301.062 507.412 295.062 505.595 294.384 499.558C293.767 494.058 296.624 489.254 304.852 488.331C312.946 487.422 317.791 492.674 318.641 496.609L318.736 497.051L314.487 497.528Z" fill="#383727"/>
<path d="M242.331 503.781L241.89 507.036C241.491 509.979 241.722 510.283 244.486 510.658C249.391 511.323 251.8 509.97 252.453 505.154C253.064 500.651 251.387 498.289 248.221 497.859C245.01 497.424 242.942 499.278 242.331 503.781ZM226.496 508.036L230.859 506.675C232.307 508.052 233.957 509.275 235.562 509.493C237.301 509.729 237.471 509.479 237.871 506.536L238.203 504.084C238.748 500.071 241.424 496.075 248.336 497.012C254.757 497.883 257.129 502.156 256.645 505.723C255.985 510.583 251.972 512.718 245.64 511.859L244.169 511.659C241.538 511.302 241.291 511.451 240.946 513.992C239.936 521.439 246.189 522.877 249.177 523.283C254.706 524.033 258.483 520.958 259.608 512.664L261.768 496.745C262.101 494.293 261.891 493.493 259.439 493.16L259.572 492.179L269.203 493.486L269.07 494.467C266.618 494.134 266.114 494.837 265.781 497.29L263.682 512.763C262.551 521.101 258.202 525.37 249.062 524.13C240.59 522.98 236.649 519.222 237.096 512.244C237.15 510.843 236.99 510.685 235.429 510.474C232.563 510.176 228.431 509.842 226.496 508.036Z" fill="#383727"/>
<path d="M178.783 473.936L183.348 473.75C184.391 475.454 185.634 477.145 187.129 477.771C188.083 478.171 188.789 478.466 189.765 478.582C191.746 478.045 194.099 478.249 196.797 479.379C203.397 482.141 204.427 487.255 202.394 492.112L194.941 509.919C193.985 512.202 194.081 513.023 196.364 513.978L195.982 514.891L187.016 511.139L187.398 510.225C189.681 511.181 190.25 510.638 191.205 508.356L199.093 489.511C201.664 483.367 198.376 480.967 196.467 480.167C194.558 479.368 190.54 478.711 187.969 484.854L180.081 503.699C179.125 505.982 179.221 506.803 181.504 507.758L181.122 508.671L172.156 504.919L172.538 504.005C174.821 504.961 175.389 504.419 176.345 502.136L183.799 484.328C184.719 482.128 186.093 480.362 187.94 479.33C187.777 479.018 187.421 478.82 186.799 478.56C184.142 477.448 180.184 476.181 178.783 473.936Z" fill="#383727"/>
<path d="M150.147 458.589L150.729 457.789L158.735 463.612L158.153 464.413C156.151 462.957 155.374 463.337 153.918 465.338L142.589 480.913C139.492 485.17 134.585 486.943 128.799 482.735C123.013 478.526 123.226 473.338 126.323 469.081L127.62 467.298C129.076 465.296 129.271 464.492 127.269 463.037L127.852 462.236L135.712 467.954L135.129 468.754C133.128 467.298 132.351 467.679 130.895 469.68L128.936 472.373C125.018 477.758 127.628 480.826 129.302 482.043C130.976 483.261 134.734 484.826 138.652 479.44L150.643 462.956C152.062 460.928 152.148 460.045 150.147 458.589Z" fill="#383727"/>
<path d="M95.7212 407.702L99.9812 409.512C100.178 412.241 100.889 414.117 102.377 415.865L108.795 423.401L108.042 424.043C106.437 422.159 105.563 422.312 103.65 423.883L101.149 426.013C100.189 426.829 100.047 427.01 100.841 427.456C101.178 427.643 103.004 428.747 104.521 430.528C109.16 435.975 107.739 440.969 103.73 444.382L101.743 446.074C99.8935 447.65 99.5102 448.449 101.144 450.368L100.39 451.009L94.0886 443.61L94.8422 442.968C96.4177 444.818 97.1992 444.625 99.0834 443.02L101.961 440.57C107.031 436.252 105.213 432.659 103.871 431.083C102.762 429.781 99.6413 427.296 95.8729 430.506L85.2527 439.55C83.3685 441.154 83.0487 441.959 84.6533 443.843L83.8996 444.485L77.5978 437.085L78.3515 436.443C79.9561 438.327 80.7427 438.071 82.627 436.467L101.058 420.77C102.908 419.195 103.228 418.391 101.623 416.506C99.8144 414.382 96.0139 410.822 95.7212 407.702Z" fill="#383727"/>
<path d="M59.8902 377.088L63.74 375.128C68.432 372.74 73.6086 373.387 76.854 379.763C80.0995 386.14 77.5764 390.706 72.8844 393.094L55.6805 401.85C53.4749 402.973 53.017 403.661 54.1396 405.866L53.2574 406.315L48.8484 397.653L49.7307 397.204C50.8533 399.41 51.6379 399.364 53.8435 398.241L57.2522 396.506C60.0192 395.098 60.0375 394.836 58.8128 392.43L56.4042 387.698C54.7917 384.53 51.9348 379.016 52.3031 377.061L56.0257 379.812C55.3853 383.117 57.2879 387.45 58.6351 390.097L59.6148 392.022C60.8395 394.428 61.1421 394.526 63.9092 393.118L72.0499 388.974C77.9851 385.953 77.031 381.996 76.0921 380.151C75.1531 378.306 72.5148 375.206 66.5796 378.227L61.7272 380.697L59.8902 377.088Z" fill="#383727"/>
<path d="M27.3537 333.653L45.9986 328.827C51.0955 327.508 56.0103 329.257 57.803 336.184C59.5956 343.11 56.1464 347.024 51.0496 348.343L32.4047 353.169C30.0087 353.789 29.3696 354.373 29.9897 356.769L29.0313 357.017L26.5961 347.607L27.5544 347.359C28.1745 349.755 28.994 349.868 31.39 349.248L51.1239 344.141C57.5712 342.472 57.4939 338.402 56.9753 336.398C56.4566 334.394 54.5497 330.797 48.1024 332.466L28.3684 337.573C25.9725 338.193 25.3334 338.777 25.9535 341.173L24.9951 341.421L22.5598 332.012L23.5182 331.764C24.1383 334.159 24.9578 334.273 27.3537 333.653Z" fill="#383727"/>
<path d="M23.1882 279.06L23.6378 279.043L23.7941 283.09L22.9847 283.121C18.893 283.279 15.8409 285.873 15.992 289.785C16.1187 293.068 18.5904 295.269 22.3224 295.125C30.551 294.807 29.8065 277.859 39.6088 277.48C42.5764 277.366 48.2456 278.408 48.6154 287.985C48.8481 294.011 45.7601 299.173 40.5892 299.373L40.1396 299.39L39.9833 295.344L40.7927 295.312C44.8844 295.154 47.9122 291.93 47.7611 288.018C47.5667 282.982 44.2615 281.354 40.7093 281.491C32.8405 281.795 33.3152 298.753 23.5129 299.132C20.9949 299.229 15.4328 297.462 15.1376 289.818C14.905 283.793 18.0173 279.26 23.1882 279.06Z" fill="#383727"/>
<path d="M33.6201 226.205L40.6039 227.537C46.2175 228.608 50.4981 231.623 49.1492 238.695C47.8087 245.723 42.3265 249.488 36.4036 248.358C29.9502 247.127 26.4048 241.458 27.9139 233.546L28.1331 232.396C28.6474 229.7 28.4412 229.34 25.5239 228.784L21.811 228.076C19.38 227.612 18.5527 227.866 18.089 230.297L17.1165 230.112L18.9376 220.565L19.91 220.75C19.4463 223.181 20.1387 223.634 22.5698 224.097L26.3269 224.814C29.1558 225.354 29.4905 225.28 29.8193 223.556C30.3589 220.727 30.8251 216.602 32.7326 214.767L33.8576 219.196C32.4049 220.568 31.0952 222.15 30.7917 223.742C30.4629 225.466 30.747 225.657 33.6201 226.205ZM41.4806 231.827L32.8613 230.183C29.9441 229.627 29.6198 229.886 29.114 232.538L29.0465 232.891C28.5323 235.588 27.5602 242.365 37.3729 244.237C45.3733 245.763 47.8794 240.79 48.3094 238.535C48.6635 236.679 48.4644 233.159 41.4806 231.827Z" fill="#383727"/>
<path d="M70.5123 168.298L70.5284 172.868C68.7861 173.846 67.0497 175.026 66.369 176.496C65.9341 177.435 65.6126 178.129 65.4605 179.1C65.9231 181.1 65.631 183.444 64.4019 186.098C61.3953 192.59 56.2463 193.429 51.4689 191.217L33.9519 183.104C31.7061 182.064 30.8826 182.129 29.8426 184.375L28.9443 183.959L33.0287 175.139L33.927 175.555C32.887 177.801 33.408 178.39 35.6537 179.43L54.1916 188.014C60.2347 190.813 62.7562 187.617 63.6261 185.738C64.4959 183.86 65.3024 179.87 59.2592 177.071L40.7214 168.487C38.4756 167.447 37.6521 167.511 36.6121 169.757L35.7138 169.341L39.7982 160.521L40.6965 160.937C39.6565 163.183 40.1775 163.772 42.4232 164.812L59.9403 172.924C62.1044 173.926 63.8185 175.364 64.7809 177.248C65.0985 177.098 65.3096 176.749 65.5932 176.137C66.8034 173.523 68.2164 169.615 70.5123 168.298Z" fill="#383727"/>
<path d="M97.3265 126.128L98.0962 126.75L91.985 134.308L91.2152 133.686C92.7713 131.761 92.3961 130.937 90.4716 129.381L74.6558 116.592C69.4772 112.405 66.2526 114.89 64.9512 116.5C63.6497 118.109 61.8947 121.783 67.0734 125.97L82.9242 138.787C84.8487 140.343 85.6416 140.579 87.1977 138.654L87.9675 139.277L81.8562 146.835L81.0864 146.212C82.6425 144.288 82.3023 143.492 80.3778 141.936L65.4018 129.826C61.3079 126.516 59.7878 121.526 64.2863 115.962C68.7849 110.399 73.983 110.84 78.0769 114.151L82.5907 117.8C84.8651 119.639 85.2299 119.761 86.3334 118.396C88.0741 116.1 90.4671 112.711 93.0148 111.994L91.9165 116.429C89.9882 116.953 88.0167 117.674 86.9982 118.934C85.8948 120.298 86.0898 120.63 88.3642 122.469L93.053 126.26C94.9775 127.816 95.7704 128.052 97.3265 126.128Z" fill="#383727"/>
<path d="M138.756 88.9991L136.605 93.0309C134.607 93.0669 132.519 93.2829 131.223 94.2548C130.395 94.8758 129.783 95.3348 129.189 96.1177C128.649 98.0976 127.281 100.024 124.941 101.778C119.217 106.071 114.285 104.37 111.127 100.158L99.5442 84.715C98.0593 82.7351 97.3033 82.4021 95.3234 83.887L94.7294 83.0951L102.505 77.2634L103.099 78.0553C101.119 79.5403 101.299 80.3052 102.784 82.2851L115.041 98.6285C119.037 103.956 122.772 102.336 124.428 101.094C126.084 99.8525 128.685 96.7207 124.689 91.3929L112.432 75.0495C110.947 73.0696 110.191 72.7366 108.211 74.2215L107.617 73.4295L115.393 67.5978L115.987 68.3898C114.007 69.8747 114.187 70.6397 115.672 72.6196L127.254 88.063C128.685 89.971 129.513 92.0499 129.468 94.1648C129.819 94.1828 130.17 93.9758 130.71 93.5708C133.014 91.8429 136.11 89.0711 138.756 88.9991Z" fill="#383727"/>
<path d="M173.572 57.1591L174.624 59.5474C176.747 64.3651 175.813 69.4976 169.265 72.3827C162.718 75.2679 158.3 72.4944 156.177 67.6766L149.898 53.4293C148.9 51.1646 148.427 50.5371 145.956 51.6259C142.086 53.3316 139.18 53.432 137.167 52.5485L140.075 49.1036C141.916 50.6034 146.751 50.1937 149.222 49.105L154.451 46.8005L154.851 47.7064C152.586 48.7044 152.606 49.5314 153.604 51.7962L160.336 67.0729C163.022 73.1672 167.026 72.4351 168.921 71.6004C170.815 70.7657 174.057 68.3041 171.372 62.2099L169.866 58.7922C168.868 56.5274 168.189 55.9907 165.924 56.9888L165.525 56.0829L174.419 52.1634L174.818 53.0693C172.553 54.0673 172.574 54.8943 173.572 57.1591Z" fill="#383727"/>
<path d="M215.291 36.4056L214.209 30.6111C213.068 24.5069 209.54 23.0145 206.311 23.6177C202.506 24.3282 199.953 28.0553 201.093 34.1595C201.968 38.8482 205.283 42.6237 210.414 41.6653C213.377 41.1118 215.737 38.7942 215.291 36.4056ZM225.137 51.87L225.319 52.8431L215.765 54.6277L215.583 53.6545C218.016 53.2001 218.273 52.3738 217.819 49.941L216.076 40.6078C215.853 39.4135 215.609 39.8252 215.341 40.1042C213.883 41.6124 211.259 42.5145 210.551 42.6467C200.82 44.4643 197.554 38.2536 196.935 34.9361C196.026 30.0704 198.413 24.223 206.021 22.802C212.833 21.5297 217.297 25.0904 218.297 30.4426L219.33 35.9717C219.867 38.8469 220.11 39.1677 221.791 38.8537C224.621 38.325 228.625 37.211 231.029 38.3184L227.315 40.9805C225.508 40.1279 223.54 39.3967 221.948 39.6942C220.267 40.0081 220.156 40.395 220.693 43.2702L221.8 49.1974C222.254 51.6303 222.704 52.3244 225.137 51.87Z" fill="#383727"/>
<path d="M284.062 47.9385L284.012 48.9272L274.305 48.4398L274.354 47.4511C276.826 47.5752 277.269 46.8315 277.393 44.3597L278.415 24.0012C278.749 17.3499 274.842 16.2076 272.774 16.1038C270.707 16 266.705 16.7452 266.371 23.3965L265.349 43.755C265.225 46.2268 265.501 47.0066 267.973 47.1307L267.923 48.1194L258.216 47.6321L258.265 46.6433C260.737 46.7674 261.18 46.0237 261.304 43.552L262.27 24.317C262.534 19.0588 265.671 14.8911 272.817 15.2499C279.963 15.6087 282.667 20.0697 282.403 25.3279L281.438 44.5628C281.314 47.0346 281.59 47.8144 284.062 47.9385Z" fill="#383727"/>
<path d="M337.497 48.3724L337.233 49.3733C334.361 48.6183 330.034 46.3177 331.487 40.7907C332.837 35.6554 329.9 33.0223 325.765 31.9355C325.156 31.7754 324.872 31.7938 324.632 32.7077L320.17 49.6804C319.541 52.074 319.651 52.8939 322.045 53.5231L321.793 54.4805L312.393 52.0095L312.645 51.0521C315.038 51.6813 315.625 51.0444 316.254 48.6508L322.397 25.2807C323.026 22.8871 322.829 22.0444 320.435 21.4152L320.687 20.4577L330.087 22.9287L329.835 23.8862C327.442 23.257 326.943 23.9167 326.314 26.3103L325.593 29.052C325.238 30.4012 325.245 30.7287 326.899 31.1634C332.774 32.7077 336.959 35.9016 335.369 41.9509C334.466 45.3889 335.799 47.9262 337.497 48.3724Z" fill="#383727"/>
<path d="M382.608 62.0761L384.173 59.1882C385.588 56.5772 385.48 56.2112 383.027 54.8817C378.675 52.523 375.943 52.936 373.627 57.2085C371.462 61.2041 372.194 64.0069 375.003 65.5294C377.852 67.0733 380.442 66.0717 382.608 62.0761ZM398.923 63.703L394.362 63.4313C393.495 61.6308 392.384 59.9028 390.96 59.1308C389.417 58.2945 389.17 58.4676 387.755 61.0785L386.575 63.2544C384.646 66.8148 380.728 69.6047 374.596 66.2811C368.899 63.1932 368.193 58.3577 369.909 55.1929C372.246 50.8808 376.755 50.3051 382.373 53.35L383.678 54.0576C386.012 55.3228 386.296 55.2717 387.518 53.0168C391.099 46.4102 385.76 42.851 383.11 41.4143C378.204 38.7554 373.583 40.2938 369.594 47.6521L361.939 61.7751C360.76 63.9509 360.672 64.7735 362.848 65.9529L362.376 66.8232L353.831 62.1915L354.303 61.3212C356.479 62.5006 357.199 62.021 358.379 59.8452L365.82 46.1178C369.829 38.72 375.407 36.2668 383.517 40.6627C391.034 44.7369 393.388 49.6471 390.5 56.0148C389.954 57.3055 390.047 57.51 391.432 58.2605C394.007 59.5537 397.754 61.3287 398.923 63.703Z" fill="#383727"/>
<path d="M410.063 85.6947L409.762 86.09C407.413 89.1863 405.83 94.5104 410.043 98.3714C412.863 100.955 417.402 101.331 421.415 96.9516C424.972 93.0701 424.813 88.7137 420.467 84.7312C417.946 82.4207 417.249 81.7822 416.951 81.5086C415.756 80.4142 415.226 80.6603 414.527 81.4233L413.554 82.4849L410.568 79.7488L415.402 74.474L418.388 77.2101L417.323 78.3712C416.624 79.1342 416.425 79.6843 417.62 80.7788L420.672 83.5757C424.752 87.315 428.279 87.1293 431.289 83.845C434.664 80.1625 433.129 76.3758 431.072 74.4909C428.683 72.302 424.943 71.9875 421.815 74.7356L418.663 71.8475C422.665 69.4116 427.436 69.9996 431.65 73.8606C437.09 78.8464 436.768 83.8607 434.275 86.5811C432.238 88.8038 428.67 90.2335 424.628 87.3842C424.465 87.2957 424.57 87.5141 424.57 87.5141C426.336 89.3161 428.911 95.0321 424.807 99.5107C421.067 103.591 415.569 104.596 409.465 99.0017C403.46 93.4991 404.233 86.395 406.641 83.1688L406.911 82.8066L410.063 85.6947Z" fill="#383727"/>
<path d="M451.549 142.922L450.741 143.493L445.138 135.55L445.947 134.979C447.374 137.002 448.232 136.892 450.255 135.465L466.913 123.717C472.355 119.878 470.845 116.098 469.652 114.406C468.459 112.715 465.404 110.023 459.962 113.862L443.304 125.611C441.282 127.037 440.838 127.735 442.265 129.758L441.456 130.328L435.854 122.386L436.663 121.815C438.089 123.838 438.948 123.728 440.97 122.301L456.708 111.201C461.011 108.166 466.227 108.067 470.35 113.913C474.474 119.76 472.63 124.64 468.328 127.675L452.589 138.775C450.567 140.201 450.123 140.9 451.549 142.922Z" fill="#383727"/>
<path d="M485.115 189.021L484.163 189.428C482.996 186.697 482.156 181.869 487.411 179.623C492.293 177.537 492.569 173.602 490.889 169.671C490.641 169.092 490.453 168.879 489.584 169.25L473.446 176.147C471.171 177.119 470.591 177.71 471.564 179.985L470.653 180.374L466.834 171.437L467.744 171.048C468.717 173.324 469.579 173.395 471.855 172.423L494.075 162.927C496.35 161.954 496.895 161.281 495.922 159.005L496.832 158.616L500.652 167.554L499.742 167.943C498.769 165.667 497.942 165.678 495.666 166.651L493.059 167.765C491.777 168.313 491.522 168.519 492.194 170.092C494.582 175.678 494.63 180.942 488.878 183.4C485.609 184.797 484.425 187.408 485.115 189.021Z" fill="#383727"/>
<path d="M501.216 239.796L498.629 240.142C493.41 240.838 488.741 238.51 487.795 231.419C486.848 224.327 490.743 220.856 495.962 220.16L511.394 218.1C513.847 217.773 514.582 217.493 514.225 214.817C513.665 210.624 514.378 207.805 515.788 206.119L518.286 209.871C516.333 211.222 515.379 215.979 515.736 218.656L516.492 224.32L515.51 224.451C515.183 221.998 514.383 221.787 511.93 222.114L495.382 224.323C488.781 225.204 488.368 229.254 488.642 231.305C488.916 233.357 490.377 237.157 496.978 236.276L500.68 235.782C503.133 235.455 503.838 234.952 503.51 232.499L504.491 232.368L505.777 242.002L504.796 242.133C504.469 239.68 503.669 239.469 501.216 239.796Z" fill="#383727"/>
</svg>
