<svg width="547" height="545" viewBox="0 0 547 545" fill="none" xmlns="http://www.w3.org/2000/svg">
<path d="M273.133 236.548L255 254.652L273.133 272.755L291.267 254.652L273.133 236.548Z" fill="#583F21"/>
<path d="M195.86 385.025V395.408L230.26 381.564V371.182L223.327 374.11V206.387L272.927 175.238L322.527 206.387V381.564L315.86 385.025V395.408L350.527 381.564V371.182L343.327 374.11V211.179L355.86 203.192L272.927 149L190 203.192L202.527 211.179V381.564L195.86 385.025Z" fill="#583F21"/>
<circle cx="273" cy="272" r="204.5" stroke="#EAD8B1"/>
<circle cx="273" cy="272" r="269.5" stroke="#EAD8B1"/>
<!-- <path d="M523.792 299.377L503.824 296.746C498.366 296.027 494.287 292.404 495.264 284.986C496.241 277.569 501.119 275.126 506.578 275.845L526.545 278.476C529.111 278.814 529.96 278.499 530.298 275.933L531.324 276.068L529.997 286.145L528.97 286.01C529.308 283.444 528.558 283.013 525.992 282.675L504.858 279.891C497.954 278.981 496.433 282.957 496.15 285.103C495.868 287.249 496.306 291.484 503.211 292.394L524.345 295.178C526.917 295.469 527.759 295.201 528.097 292.635L529.124 292.77L528.14 300.234C527.593 304.387 527.416 308.255 523.847 311.202L522.348 306.733C525.385 306.374 526.413 305.418 526.757 302.805C527.095 300.239 526.358 299.715 523.792 299.377Z" fill="#583F21"/>
<path d="M492.993 354.66L491.446 358.602C483.912 355.646 481.283 349.205 483.999 342.284C486.698 335.407 493.758 332.617 500.416 335.23C505.979 337.413 510.067 342.455 509.804 350.338C509.745 352.034 510.347 351.916 512.105 350.786L516.282 348.129C517.422 347.413 518.355 345.808 518.854 344.538L519.18 343.706L520.144 344.084C520.147 344.591 519.882 346.812 519.607 347.513C519.057 348.914 518.058 351.202 515.656 352.685L505.003 359.222C503.924 359.91 503.301 360.727 502.802 361.997L502.527 362.698L501.563 362.32C501.605 362.084 501.769 360.379 501.907 360.028C502.027 359.722 502.243 356.723 505.385 354.771L506.525 354.056C508.205 352.996 508.722 351.936 508.613 350.023C508.383 345.585 504.276 341.496 499.019 339.433C492.405 336.838 486.688 337.88 484.814 342.655C482.992 347.298 485.284 351.635 492.993 354.66Z" fill="#583F21"/>
<path d="M453.789 404.465L454.614 399.758C456.588 399.072 458.592 398.177 459.563 396.789C460.184 395.902 460.643 395.247 460.978 394.276C460.87 392.132 461.602 389.773 463.356 387.267C467.646 381.137 473.1 381.221 477.611 384.378L494.15 395.953C496.271 397.437 497.13 397.521 498.614 395.401L499.463 395.995L493.635 404.322L492.786 403.728C494.27 401.608 493.842 400.906 491.722 399.423L474.219 387.173C468.513 383.18 465.329 386.006 464.088 387.78C462.847 389.553 461.282 393.512 466.988 397.505L484.491 409.755C486.612 411.239 487.471 411.323 488.955 409.203L489.803 409.797L483.975 418.124L483.127 417.53C484.611 415.41 484.183 414.708 482.063 413.224L465.524 401.65C463.48 400.22 461.981 398.423 461.337 396.307C460.982 396.404 460.701 396.724 460.296 397.302C458.569 399.769 456.395 403.532 453.789 404.465Z" fill="#583F21"/>
<path d="M423.352 436.974L422.669 436.196L430.311 429.494L430.994 430.272C429.048 431.979 429.328 432.797 431.034 434.743L433.61 437.68C434.261 438.423 434.509 438.205 434.814 437.625C435.003 437.271 436.095 435.375 437.934 433.761C443.559 428.828 448.802 430.239 452.432 434.378L459.972 442.975C461.679 444.92 462.524 445.243 464.47 443.536L465.153 444.314L457.511 451.016L456.829 450.238C458.774 448.531 458.495 447.713 456.788 445.767L448.473 436.286C443.881 431.05 440.151 433.006 438.524 434.434C437.179 435.613 434.664 438.882 438.077 442.774L439.939 444.897C441.646 446.842 442.421 447.227 444.367 445.52L445.049 446.299L437.408 453L436.725 452.222C438.671 450.516 438.462 449.635 436.755 447.689L427.85 437.536C426.144 435.59 425.298 435.268 423.352 436.974Z" fill="#583F21"/>
<path d="M377.267 469.787L376.777 468.875L385.731 464.065L386.22 464.977C383.941 466.202 383.946 467.107 385.171 469.387L395.26 488.164C398.556 494.299 402.671 493.21 404.578 492.186C406.485 491.161 409.665 488.331 406.369 482.196L396.28 463.418C395.055 461.138 394.387 460.589 392.107 461.814L391.617 460.902L400.57 456.092L401.06 457.004C398.781 458.229 398.786 459.134 400.011 461.414L409.543 479.155C412.149 484.005 411.592 489.432 405.001 492.973C398.41 496.514 393.578 493.982 390.972 489.133L381.44 471.391C380.215 469.111 379.547 468.562 377.267 469.787Z" fill="#583F21"/>
<path d="M335.16 496.468L334.865 495.426C337.853 494.58 342.973 494.352 344.601 500.102C346.115 505.445 350.159 506.256 354.46 505.037C355.094 504.858 355.34 504.69 355.071 503.74L350.069 486.082C349.364 483.592 348.829 482.912 346.339 483.617L346.057 482.621L355.836 479.851L356.119 480.848C353.628 481.553 353.439 482.438 354.144 484.928L361.031 509.241C361.736 511.731 362.361 512.385 364.851 511.68L365.134 512.676L355.354 515.446L355.072 514.45C357.562 513.745 357.661 512.885 356.956 510.395L356.148 507.543C355.75 506.139 355.57 505.848 353.85 506.335C347.737 508.066 342.271 507.414 340.488 501.121C339.475 497.544 336.926 495.967 335.16 496.468Z" fill="#583F21"/>
<path d="M307.043 503.136L306.966 502.622C306.356 498.604 303.517 493.536 297.551 493.882C293.558 494.113 289.969 497.243 290.328 503.444C290.647 508.941 294.029 511.997 300.183 511.641C303.753 511.434 304.74 511.377 305.163 511.352C306.854 511.254 307.056 510.677 306.993 509.596L306.906 508.093L311.134 507.848L311.567 515.317L307.339 515.562L307.244 513.918C307.181 512.838 306.914 512.288 305.222 512.386L300.9 512.636C295.122 512.971 292.691 515.751 292.96 520.402C293.263 525.617 297.221 527.225 300.133 527.057C303.516 526.861 306.478 524.285 306.697 519.936L311.16 519.677C310.07 524.454 306.151 527.604 300.185 527.949C292.481 528.396 288.956 524.499 288.732 520.647C288.55 517.499 290.079 513.782 295.161 512.827C295.346 512.769 295.106 512.689 295.106 512.689C292.467 512.7 286.304 510.465 285.937 504.123C285.602 498.345 288.856 493.49 297.5 492.989C306.003 492.496 310.767 498.254 311.432 502.41L311.506 502.877L307.043 503.136Z" fill="#583F21"/>
<path d="M231.936 505.463L231.266 508.833C230.661 511.879 230.883 512.211 233.745 512.779C238.822 513.788 241.423 512.53 242.413 507.545C243.339 502.883 241.739 500.311 238.462 499.66C235.139 498.999 232.862 500.802 231.936 505.463ZM215.135 508.89L219.776 507.749C221.199 509.279 222.843 510.662 224.505 510.992C226.305 511.349 226.498 511.1 227.103 508.054L227.608 505.515C228.433 501.361 231.482 497.361 238.636 498.783C245.283 500.103 247.485 504.714 246.751 508.407C245.752 513.438 241.426 515.409 234.872 514.107L233.349 513.804C230.626 513.263 230.359 513.402 229.836 516.033C228.305 523.741 234.739 525.643 237.832 526.257C243.555 527.394 247.695 524.426 249.4 515.842L252.674 499.365C253.178 496.826 253.011 495.977 250.472 495.473L250.674 494.458L260.643 496.438L260.442 497.454C257.903 496.949 257.332 497.651 256.828 500.19L253.646 516.205C251.931 524.836 247.119 529.014 237.658 527.134C228.888 525.392 225.016 521.216 225.93 513.961C226.076 512.503 225.918 512.328 224.303 512.007C221.331 511.512 217.039 510.9 215.135 508.89Z" fill="#583F21"/>
<path d="M167.597 469.832L172.374 469.975C173.335 471.83 174.507 473.686 176.02 474.449C176.986 474.936 177.7 475.296 178.71 475.489C180.816 475.075 183.256 475.463 185.986 476.84C192.667 480.209 193.364 485.62 190.885 490.536L181.794 508.56C180.629 510.871 180.668 511.734 182.979 512.9L182.512 513.824L173.437 509.247L173.903 508.323C176.214 509.488 176.847 508.964 178.013 506.653L187.633 487.578C190.769 481.36 187.517 478.613 185.584 477.638C183.651 476.664 179.509 475.681 176.373 481.899L166.753 500.974C165.587 503.285 165.626 504.148 167.937 505.314L167.471 506.238L158.396 501.661L158.862 500.737C161.173 501.902 161.806 501.378 162.971 499.067L172.062 481.043C173.185 478.816 174.748 477.075 176.75 476.135C176.604 475.797 176.247 475.565 175.617 475.247C172.928 473.891 168.893 472.277 167.597 469.832Z" fill="#583F21"/>
<path d="M139.217 451.684L139.888 450.896L147.769 457.608L147.098 458.396C145.128 456.718 144.287 457.052 142.609 459.023L129.551 474.356C125.981 478.548 120.723 480.004 115.027 475.153C109.331 470.302 109.967 464.91 113.537 460.718L115.032 458.963C116.71 456.992 116.977 456.17 115.007 454.492L115.678 453.704L123.417 460.294L122.745 461.082C120.775 459.404 119.934 459.738 118.256 461.709L115.998 464.36C111.483 469.662 113.959 473.069 115.607 474.472C117.255 475.875 121.048 477.808 125.564 472.506L139.384 456.277C141.026 454.276 141.187 453.362 139.217 451.684Z" fill="#583F21"/>
<path d="M87.3696 394.516L91.642 396.79C91.5971 399.651 92.1668 401.671 93.5571 403.627L99.5548 412.065L98.711 412.665C97.2116 410.555 96.2869 410.635 94.1502 412.096L91.3503 414.086C90.2763 414.85 90.1118 415.024 90.8983 415.562C91.2314 415.787 93.0336 417.104 94.4512 419.099C98.7859 425.197 96.8486 430.269 92.3611 433.459L90.1365 435.04C88.0654 436.512 87.5931 437.31 89.1198 439.457L88.276 440.057L82.3874 431.773L83.2312 431.173C84.7033 433.244 85.5351 433.115 87.6446 431.615L90.8664 429.325C96.5429 425.29 94.9765 421.381 93.7225 419.617C92.6865 418.159 89.6627 415.286 85.4437 418.285L73.5537 426.736C71.4442 428.235 71.0376 429.044 72.537 431.154L71.6932 431.753L65.8046 423.469L66.6484 422.869C68.1478 424.978 68.9907 424.783 71.1002 423.284L91.7349 408.617C93.8061 407.145 94.2127 406.336 92.7133 404.227C91.0231 401.849 87.3893 397.792 87.3696 394.516Z" fill="#583F21"/>
<path d="M52.7916 358.627L57.0029 356.993C62.1355 355.001 67.4535 356.218 70.1606 363.193C72.8677 370.168 69.7631 374.654 64.6305 376.646L45.8111 383.95C43.3983 384.886 42.8497 385.554 43.7861 387.966L42.821 388.341L39.1434 378.865L40.1085 378.491C41.0449 380.904 41.866 380.938 44.2787 380.002L48.0075 378.555C51.0344 377.38 51.0809 377.109 50.0594 374.477L48.0503 369.301C46.7053 365.835 44.3119 359.798 44.9004 357.803L48.4847 361.056C47.4713 364.427 48.9958 369.136 50.1195 372.031L50.9367 374.137C51.9583 376.769 52.2627 376.903 55.2896 375.728L64.1949 372.272C70.6874 369.752 70.1103 365.534 69.3272 363.516C68.544 361.498 66.1245 357.996 59.632 360.515L54.3239 362.576L52.7916 358.627Z" fill="#583F21"/>
<path d="M23.5611 309.402L43.4971 306.542C48.9468 305.76 53.8529 308.146 54.9155 315.552C55.9782 322.958 51.941 326.627 46.4913 327.409L26.5554 330.27C23.9935 330.637 23.2618 331.17 23.6294 333.732L22.6047 333.879L21.161 323.818L22.1858 323.671C22.5534 326.233 23.392 326.445 25.9538 326.078L47.0542 323.05C53.948 322.061 54.338 317.821 54.0305 315.679C53.7231 313.536 52.1568 309.578 45.2631 310.567L24.1627 313.594C21.6008 313.962 20.8691 314.495 21.2367 317.057L20.212 317.204L18.7683 307.143L19.7931 306.995C20.1607 309.557 20.9993 309.77 23.5611 309.402Z" fill="#583F21"/>
<path d="M25.4645 253.109L25.9335 253.147L25.5908 257.368L24.7466 257.299C20.4785 256.953 16.986 259.266 16.6547 263.347C16.3768 266.77 18.6684 269.364 22.5613 269.68C31.1444 270.377 32.4859 252.687 42.7105 253.517C45.8061 253.768 51.5622 255.558 50.7513 265.548C50.2411 271.833 46.3908 276.808 40.9971 276.37L40.5281 276.332L40.8707 272.111L41.715 272.179C45.9831 272.526 49.5289 269.556 49.8601 265.475C50.2866 260.222 47.0581 258.119 43.3528 257.818C35.145 257.152 33.522 274.819 23.2974 273.989C20.6709 273.776 15.1163 271.248 15.7636 263.274C16.2738 256.989 20.0707 252.671 25.4645 253.109Z" fill="#583F21"/>
<path d="M42.4666 200.265L49.5383 202.56C55.2226 204.405 59.2698 208.093 56.9456 215.255C54.636 222.371 48.456 225.56 42.4584 223.614C35.9237 221.493 32.9864 215.147 35.5865 207.135L35.9642 205.972C36.8503 203.241 36.6834 202.841 33.7294 201.882L29.9697 200.662C27.508 199.863 26.6164 200.019 25.8174 202.481L24.8328 202.161L27.9703 192.493L28.955 192.813C28.1561 195.275 28.8153 195.835 31.277 196.634L35.0815 197.869C37.946 198.798 38.3029 198.766 38.8694 197.02C39.799 194.156 40.8221 189.936 43.0411 188.282L43.6293 193.024C41.9427 194.258 40.377 195.728 39.854 197.34C39.2875 199.085 39.5573 199.321 42.4666 200.265ZM49.8871 207.126L41.1592 204.294C38.2052 203.335 37.835 203.561 36.9634 206.246L36.8472 206.605C35.9611 209.335 34.0665 216.24 44.0028 219.464C52.104 222.094 55.3544 217.261 56.0952 214.979C56.7053 213.099 56.9589 209.421 49.8871 207.126Z" fill="#583F21"/>
<path d="M87.096 145.322L86.4792 150.061C84.5376 150.833 82.5743 151.815 81.6649 153.244C81.0839 154.157 80.6545 154.832 80.3622 155.817C80.5645 157.954 79.9367 160.343 78.2947 162.924C74.2783 169.236 68.825 169.392 64.18 166.436L47.1481 155.599C44.9646 154.21 44.102 154.163 42.7126 156.347L41.8392 155.791L47.2955 147.216L48.169 147.771C46.7796 149.955 47.238 150.637 49.4216 152.026L67.446 163.495C73.3218 167.233 76.3784 164.27 77.5404 162.444C78.7024 160.618 80.0916 156.593 74.2158 152.855L56.1914 141.386C54.0079 139.997 53.1453 139.95 51.756 142.134L50.8825 141.578L56.3388 133.003L57.2123 133.558C55.8229 135.742 56.2813 136.424 58.4649 137.813L75.4968 148.65C77.6009 149.989 79.1782 151.718 79.9146 153.804C80.2647 153.692 80.5317 153.36 80.9106 152.764C82.5273 150.223 84.5337 146.369 87.096 145.322Z" fill="#583F21"/>
<path d="M118.589 110.337L119.294 111.095L111.85 118.017L111.145 117.258C113.04 115.496 112.774 114.587 111.011 112.692L96.528 97.1159C91.7856 92.0157 88.0802 94.1118 86.495 95.5858C84.9098 97.0598 82.5502 100.603 87.2926 105.703L101.808 121.314C103.57 123.209 104.356 123.571 106.252 121.809L106.957 122.567L99.5132 129.488L98.8082 128.73C100.704 126.967 100.469 126.093 98.7066 124.198L84.9922 109.449C81.2431 105.417 80.4069 100.026 85.8862 94.931C91.3654 89.8362 96.6815 91.0616 100.431 95.0935L104.564 99.5389C106.647 101.779 107.007 101.958 108.351 100.709C110.492 98.5891 113.47 95.4343 116.214 95.0679L114.421 99.4977C112.347 99.7553 110.2 100.21 108.959 101.363C107.615 102.613 107.768 102.985 109.851 105.225L114.145 109.843C115.907 111.738 116.693 112.1 118.589 110.337Z" fill="#583F21"/>
<path d="M170.661 72.5882L167.805 76.4196C165.734 76.1436 163.541 76.0396 162.049 76.8413C161.096 77.3536 160.391 77.7322 159.654 78.4486C158.785 80.411 157.069 82.1878 154.375 83.6354C147.784 87.1765 142.951 84.6447 140.346 79.7947L130.791 62.0117C129.567 59.7318 128.837 59.269 126.557 60.4939L126.067 59.5819L135.021 54.7714L135.511 55.6834C133.231 56.9083 133.297 57.7274 134.522 60.0073L144.633 78.8267C147.929 84.9616 152.045 83.8723 153.952 82.8478C155.858 81.8233 159.038 78.993 155.742 72.858L145.631 54.0387C144.406 51.7588 143.677 51.296 141.397 52.5209L140.907 51.6089L149.861 46.7984L150.351 47.7104C148.071 48.9353 148.137 49.7544 149.362 52.0343L158.916 69.8174C160.097 72.0143 160.627 74.2936 160.249 76.4732C160.609 76.5468 161.004 76.3878 161.626 76.0537C164.279 74.6284 167.914 72.2479 170.661 72.5882Z" fill="#583F21"/>
<path d="M213.449 44.8324L214.122 47.4771C215.482 52.8123 213.633 57.945 206.382 59.7921C199.132 61.6392 195.053 58.0167 193.694 52.6815L189.674 36.904C189.035 34.396 188.655 33.6673 185.919 34.3643C181.633 35.4563 178.618 35.0589 176.695 33.8007L180.288 30.7488C181.928 32.6132 186.986 33.0242 189.722 32.3272L195.513 30.8519L195.769 31.855C193.261 32.494 193.139 33.3505 193.778 35.8585L198.088 52.776C199.807 59.5248 204.064 59.4601 206.162 58.9257C208.259 58.3913 212.028 56.4114 210.309 49.6627L209.345 45.8779C208.706 43.3699 208.098 42.6992 205.59 43.3382L205.334 42.335L215.184 39.8257L215.439 40.8289C212.931 41.4679 212.81 42.3244 213.449 44.8324Z" fill="#583F21"/>
<path d="M260.626 30.8039L260.555 24.64C260.48 18.1467 257.113 15.9738 253.678 16.0136C249.632 16.0605 246.33 19.4399 246.405 25.9333C246.463 30.9209 249.197 35.407 254.655 35.3437C257.808 35.3072 260.656 33.3448 260.626 30.8039ZM267.984 48.5072L267.996 49.5424L257.833 49.6601L257.821 48.6249C260.409 48.5949 260.823 47.7901 260.793 45.2022L260.678 35.274C260.663 34.0036 260.338 34.3838 260.012 34.6229C258.238 35.914 255.373 36.3707 254.62 36.3795C244.268 36.4993 242.023 29.5135 241.982 25.9845C241.922 20.8087 245.434 15.215 253.527 15.1213C260.773 15.0373 264.731 19.5092 264.797 25.2026L264.865 31.0843C264.9 34.1427 265.093 34.517 266.881 34.4963C269.892 34.4614 274.217 34.0348 276.494 35.6085L272.188 37.6819C270.48 36.4781 268.585 35.3707 266.891 35.3903C265.103 35.411 264.919 35.7896 264.955 38.848L265.028 45.1532C265.058 47.7411 265.396 48.5372 267.984 48.5072Z" fill="#583F21"/>
<path d="M325.452 54.6465L325.215 55.6544L315.32 53.3329L315.556 52.325C318.076 52.9161 318.671 52.234 319.262 49.7144L324.131 28.9613C325.721 22.1811 321.916 20.2732 319.808 19.7788C317.701 19.2844 313.444 19.3007 311.853 26.0809L306.984 46.834C306.393 49.3536 306.531 50.2077 309.051 50.7988L308.814 51.8067L298.919 49.4852L299.155 48.4773C301.675 49.0684 302.27 48.3863 302.861 45.8667L307.461 26.2589C308.719 20.8989 312.728 17.1995 320.012 18.9084C327.297 20.6173 329.243 25.7139 327.985 31.0739L323.385 50.6816C322.794 53.2013 322.932 54.0554 325.452 54.6465Z" fill="#583F21"/>
<path d="M374.186 62.2214L373.717 63.1966C370.918 61.8498 366.934 58.6267 369.526 53.2417C371.934 48.2384 369.443 44.9506 365.415 43.012C364.821 42.7263 364.526 42.6886 364.097 43.5791L356.139 60.1155C355.016 62.4476 354.966 63.3112 357.298 64.4336L356.849 65.3664L347.691 60.9586L348.14 60.0258C350.472 61.1481 351.2 60.611 352.322 58.2789L363.281 35.5095C364.403 33.1774 364.369 32.2729 362.037 31.1506L362.485 30.2177L371.644 34.6256L371.195 35.5584C368.863 34.436 368.219 35.014 367.097 37.3461L365.811 40.0174C365.179 41.3318 365.121 41.6694 366.732 42.4449C372.456 45.1998 376.117 49.3118 373.281 55.2055C371.668 58.5552 372.533 61.4256 374.186 62.2214Z" fill="#583F21"/>
<path d="M420.453 86.4095L422.662 83.7781C424.658 81.399 424.623 81.0012 422.388 79.1259C418.423 75.7986 415.538 75.6502 412.271 79.5432C409.216 83.1839 409.38 86.209 411.939 88.3566C414.535 90.5344 417.398 90.0502 420.453 86.4095ZM436.83 91.4902L432.213 90.2574C431.702 88.2313 430.925 86.2283 429.628 85.1394C428.222 83.9597 427.932 84.0853 425.936 86.4643L424.272 88.4469C421.55 91.6911 416.952 93.7299 411.365 89.0415C406.174 84.6858 406.463 79.5836 408.882 76.6999C412.179 72.7708 416.92 73.1244 422.039 77.4196L423.228 78.4178C425.355 80.2024 425.656 80.2095 427.38 78.1548C432.432 72.135 427.706 67.3712 425.291 65.3446C420.821 61.5939 415.764 62.2032 410.138 68.9078L399.34 81.7765C397.676 83.759 397.414 84.5836 399.397 86.2472L398.731 87.0402L390.945 80.5067L391.611 79.7136C393.593 81.3773 394.432 81.0367 396.095 79.0542L406.591 66.546C412.248 59.8053 418.476 58.4589 425.866 64.6597C432.715 70.4068 434.1 75.9304 429.808 81.8504C428.978 83.0586 429.032 83.2877 430.293 84.3464C432.661 86.2101 436.128 88.8127 436.83 91.4902Z" fill="#583F21"/>
<path d="M450.157 119.664L449.763 120.004C446.693 122.667 443.926 127.774 447.406 132.632C449.735 135.884 454.299 137.246 459.349 133.628C463.825 130.422 464.601 125.93 461.011 120.919C458.929 118.012 458.353 117.208 458.107 116.864C457.12 115.487 456.524 115.624 455.644 116.255L454.42 117.131L451.954 113.689L458.036 109.332L460.503 112.775L459.164 113.734C458.284 114.364 457.962 114.884 458.948 116.261L461.469 119.781C464.84 124.486 468.489 125.055 472.276 122.343C476.523 119.301 475.768 115.095 474.069 112.724C472.096 109.969 468.336 108.842 464.543 110.98L461.94 107.346C466.56 105.715 471.315 107.345 474.795 112.203C479.289 118.477 477.879 123.539 474.743 125.785C472.179 127.621 468.22 128.316 464.698 124.53C464.55 124.404 464.61 124.65 464.61 124.65C466.03 126.875 467.433 133.278 462.269 136.978C457.564 140.348 451.721 140.192 446.679 133.153C441.72 126.229 444.04 119.126 447.198 116.342L447.554 116.03L450.157 119.664Z" fill="#583F21"/>
<path d="M479.803 186.971L478.848 187.371L474.923 177.995L475.878 177.595C476.877 179.982 477.779 180.064 480.166 179.065L499.83 170.834C506.254 168.145 505.567 163.944 504.731 161.947C503.895 159.951 501.385 156.512 494.96 159.201L475.297 167.432C472.91 168.431 472.299 169.044 473.298 171.431L472.343 171.831L468.419 162.455L469.374 162.055C470.373 164.443 471.274 164.524 473.662 163.525L492.24 155.749C497.319 153.623 502.667 154.7 505.556 161.602C508.444 168.504 505.458 173.07 500.38 175.195L481.801 182.972C479.414 183.971 478.803 184.584 479.803 186.971Z" fill="#583F21"/>
<path d="M502.54 239.519L501.478 239.726C500.884 236.677 501.086 231.557 506.952 230.414C512.402 229.353 513.548 225.391 512.694 221.003C512.568 220.356 512.422 220.097 511.452 220.286L493.438 223.793C490.897 224.288 490.175 224.764 490.67 227.304L489.654 227.502L487.711 217.525L488.727 217.328C489.222 219.868 490.088 220.131 492.628 219.636L517.432 214.807C519.972 214.312 520.677 213.744 520.182 211.203L521.198 211.005L523.141 220.982L522.124 221.18C521.63 218.64 520.782 218.469 518.241 218.964L515.331 219.53C513.9 219.809 513.594 219.965 513.936 221.72C515.15 227.955 514.043 233.348 507.623 234.598C503.974 235.309 502.189 237.718 502.54 239.519Z" fill="#583F21"/> -->
</svg>
