<svg width="92" height="38" viewBox="0 0 92 38" fill="none" xmlns="http://www.w3.org/2000/svg">
<path d="M32.8558 14.9905C32.8558 15.8231 32.6514 16.5973 32.2425 17.313C31.8482 18.0142 31.3152 18.5765 30.6435 19.0001C31.3152 19.4238 31.8482 19.9934 32.2425 20.7092C32.6514 21.4103 32.8558 22.1772 32.8558 23.0098V27.7645H31.3882V23.0098C31.3882 22.1042 31.067 21.3373 30.4244 20.7092C29.7819 20.0665 29.0079 19.7451 28.1025 19.7451H16.7997V27.7645H15.332V18.2552H28.1025C29.0079 18.2552 29.7819 17.9411 30.4244 17.313C31.067 16.6703 31.3882 15.8961 31.3882 14.9905C31.3882 14.0848 31.067 13.3107 30.4244 12.6679C29.7819 12.0252 29.0079 11.7039 28.1025 11.7039H15.332V10.2358H28.1025C29.4168 10.2358 30.5339 10.7033 31.4539 11.6381C32.3885 12.5584 32.8558 13.6758 32.8558 14.9905Z" fill="#583F21"/>
<path d="M39.7997 12.7994C41.5082 11.0904 43.5746 10.2358 45.9987 10.2358C48.4228 10.2358 50.4892 11.0904 52.1978 12.7994C53.9063 14.5084 54.7606 16.5754 54.7606 19.0001C54.7606 21.4249 53.9063 23.4919 52.1978 25.2009C50.4892 26.9099 48.4228 27.7645 45.9987 27.7645C43.5746 27.7645 41.5082 26.9099 39.7997 25.2009C38.0911 23.4919 37.2368 21.4249 37.2368 19.0001C37.2368 16.5754 38.0911 14.5084 39.7997 12.7994ZM42.3406 25.3324C43.465 25.9751 44.6844 26.2964 45.9987 26.2964C47.313 26.2964 48.5323 25.9751 49.6568 25.3324C50.7812 24.675 51.6647 23.784 52.3073 22.6592C52.9644 21.5345 53.293 20.3148 53.293 19.0001C53.293 17.6855 52.9644 16.4658 52.3073 15.3411C51.6647 14.2163 50.7812 13.3326 49.6568 12.6898C48.5323 12.0325 47.313 11.7039 45.9987 11.7039C44.6844 11.7039 43.465 12.0325 42.3406 12.6898C41.2162 13.3326 40.3254 14.2163 39.6682 15.3411C39.0257 16.4658 38.7044 17.6855 38.7044 19.0001C38.7044 20.3148 39.0257 21.5345 39.6682 22.6592C40.3254 23.784 41.2162 24.675 42.3406 25.3324ZM46.7654 18.2333C46.9844 18.4378 47.0939 18.6934 47.0939 19.0001C47.0939 19.3069 46.9844 19.5698 46.7654 19.7889C46.5609 19.9934 46.3054 20.0957 45.9987 20.0957C45.692 20.0957 45.4292 19.9934 45.2101 19.7889C45.0057 19.5698 44.9035 19.3069 44.9035 19.0001C44.9035 18.6934 45.0057 18.4378 45.2101 18.2333C45.4292 18.0142 45.692 17.9046 45.9987 17.9046C46.3054 17.9046 46.5609 18.0142 46.7654 18.2333Z" fill="#583F21"/>
<path d="M75.1977 18.2552V10.2358H76.6654V27.7645H75.1977V19.7451H60.6092V27.7645H59.1416V10.2358H60.6092V18.2552H75.1977Z" fill="#583F21"/>
</svg>
