<svg width="630" height="182" viewBox="0 0 630 182" fill="none" xmlns="http://www.w3.org/2000/svg">
<path d="M180 49.7467C180 58.3032 177.9 66.2592 173.7 73.6147C169.65 80.8202 164.175 86.5996 157.275 90.9529C164.175 95.3061 169.65 101.161 173.7 108.516C177.9 115.722 180 123.603 180 132.159V181.021H164.925V132.159C164.925 122.852 161.625 114.971 155.025 108.516C148.425 101.911 140.475 98.6086 131.175 98.6086H15.075V181.021H0V83.2971H131.175C140.475 83.2971 148.425 80.0696 155.025 73.6147C161.625 67.0097 164.925 59.0537 164.925 49.7467C164.925 40.4397 161.625 32.4836 155.025 25.8787C148.425 19.2737 140.475 15.9712 131.175 15.9712H0V0.884766H131.175C144.675 0.884766 156.15 5.68839 165.6 15.2956C175.2 24.7528 180 36.2365 180 49.7467Z" fill="#583F21"/>
<path d="M251.325 27.2297C268.875 9.6664 290.1 0.884766 315 0.884766C339.9 0.884766 361.125 9.6664 378.675 27.2297C396.225 44.7929 405 66.034 405 90.9529C405 115.872 396.225 137.113 378.675 154.676C361.125 172.239 339.9 181.021 315 181.021C290.1 181.021 268.875 172.239 251.325 154.676C233.775 137.113 225 115.872 225 90.9529C225 66.034 233.775 44.7929 251.325 27.2297ZM277.425 156.027C288.975 162.632 301.5 165.935 315 165.935C328.5 165.935 341.025 162.632 352.575 156.027C364.125 149.272 373.2 140.115 379.8 128.556C386.55 116.998 389.925 104.463 389.925 90.9529C389.925 77.4426 386.55 64.9082 379.8 53.3494C373.2 41.7907 364.125 32.7088 352.575 26.1038C341.025 19.3487 328.5 15.9712 315 15.9712C301.5 15.9712 288.975 19.3487 277.425 26.1038C265.875 32.7088 256.725 41.7907 249.975 53.3494C243.375 64.9082 240.075 77.4426 240.075 90.9529C240.075 104.463 243.375 116.998 249.975 128.556C256.725 140.115 265.875 149.272 277.425 156.027ZM322.875 83.0719C325.125 85.1735 326.25 87.8005 326.25 90.9529C326.25 94.1052 325.125 96.8073 322.875 99.059C320.775 101.161 318.15 102.211 315 102.211C311.85 102.211 309.15 101.161 306.9 99.059C304.8 96.8073 303.75 94.1052 303.75 90.9529C303.75 87.8005 304.8 85.1735 306.9 83.0719C309.15 80.8202 311.85 79.6943 315 79.6943C318.15 79.6943 320.775 80.8202 322.875 83.0719Z" fill="#583F21"/>
<path d="M614.925 83.2971V0.884766H630V181.021H614.925V98.6086H465.075V181.021H450V0.884766H465.075V83.2971H614.925Z" fill="#583F21"/>
</svg>
