<svg width="420" height="121" viewBox="0 0 420 121" fill="none" xmlns="http://www.w3.org/2000/svg">
<path d="M120 33.1645C120 38.8688 118.6 44.1728 115.8 49.0765C113.1 53.8801 109.45 57.733 104.85 60.6352C109.45 63.5374 113.1 67.4404 115.8 72.3441C118.6 77.1477 120 82.4017 120 88.106V120.681H109.95V88.106C109.95 81.9013 107.75 76.6473 103.35 72.3441C98.95 67.9407 93.65 65.7391 87.45 65.7391H10.05V120.681H0V55.5314H87.45C93.65 55.5314 98.95 53.3797 103.35 49.0765C107.75 44.6732 109.95 39.3691 109.95 33.1645C109.95 26.9598 107.75 21.6558 103.35 17.2524C98.95 12.8491 93.65 10.6474 87.45 10.6474H0V0.589844H87.45C96.45 0.589844 104.1 3.79226 110.4 10.1971C116.8 16.5019 120 24.1577 120 33.1645Z" fill="url(#paint0_radial_517_2506)"/>
<path d="M167.55 18.1531C179.25 6.44427 193.4 0.589844 210 0.589844C226.6 0.589844 240.75 6.44427 252.45 18.1531C264.15 29.862 270 44.0227 270 60.6352C270 77.2478 264.15 91.4085 252.45 103.117C240.75 114.826 226.6 120.681 210 120.681C193.4 120.681 179.25 114.826 167.55 103.117C155.85 91.4085 150 77.2478 150 60.6352C150 44.0227 155.85 29.862 167.55 18.1531ZM184.95 104.018C192.65 108.421 201 110.623 210 110.623C219 110.623 227.35 108.421 235.05 104.018C242.75 99.5146 248.8 93.41 253.2 85.7042C257.7 77.9983 259.95 69.642 259.95 60.6352C259.95 51.6284 257.7 43.2721 253.2 35.5663C248.8 27.8605 242.75 21.8059 235.05 17.4025C227.35 12.8991 219 10.6474 210 10.6474C201 10.6474 192.65 12.8991 184.95 17.4025C177.25 21.8059 171.15 27.8605 166.65 35.5663C162.25 43.2721 160.05 51.6284 160.05 60.6352C160.05 69.642 162.25 77.9983 166.65 85.7042C171.15 93.41 177.25 99.5146 184.95 104.018ZM215.25 55.3813C216.75 56.7823 217.5 58.5336 217.5 60.6352C217.5 62.7368 216.75 64.5382 215.25 66.0393C213.85 67.4404 212.1 68.1409 210 68.1409C207.9 68.1409 206.1 67.4404 204.6 66.0393C203.2 64.5382 202.5 62.7368 202.5 60.6352C202.5 58.5336 203.2 56.7823 204.6 55.3813C206.1 53.8801 207.9 53.1296 210 53.1296C212.1 53.1296 213.85 53.8801 215.25 55.3813Z" fill="url(#paint1_radial_517_2506)"/>
<path d="M409.95 55.5314V0.589844H420V120.681H409.95V65.7391H310.05V120.681H300V0.589844H310.05V55.5314H409.95Z" fill="url(#paint2_radial_517_2506)"/>
<defs>
<radialGradient id="paint0_radial_517_2506" cx="0" cy="0" r="1" gradientUnits="userSpaceOnUse" gradientTransform="translate(210 60.6352) rotate(90) scale(210.365 735.72)">
<stop stop-color="#583F21"/>
<stop offset="1" stop-color="#CEAA7F"/>
</radialGradient>
<radialGradient id="paint1_radial_517_2506" cx="0" cy="0" r="1" gradientUnits="userSpaceOnUse" gradientTransform="translate(210 60.6352) rotate(90) scale(210.365 735.72)">
<stop stop-color="#583F21"/>
<stop offset="1" stop-color="#CEAA7F"/>
</radialGradient>
<radialGradient id="paint2_radial_517_2506" cx="0" cy="0" r="1" gradientUnits="userSpaceOnUse" gradientTransform="translate(210 60.6352) rotate(90) scale(210.365 735.72)">
<stop stop-color="#583F21"/>
<stop offset="1" stop-color="#CEAA7F"/>
</radialGradient>
</defs>
</svg>
