<svg width="800" height="228" viewBox="0 0 800 228" fill="none" xmlns="http://www.w3.org/2000/svg">
<path d="M228.571 61.845C228.571 72.675 225.905 82.745 220.571 92.055C215.429 101.175 208.476 108.49 199.714 114C208.476 119.51 215.429 126.92 220.571 136.23C225.905 145.35 228.571 155.325 228.571 166.155V228H209.429V166.155C209.429 154.375 205.238 144.4 196.857 136.23C188.476 127.87 178.381 123.69 166.571 123.69H19.1429V228H0V104.31H166.571C178.381 104.31 188.476 100.225 196.857 92.055C205.238 83.695 209.429 73.625 209.429 61.845C209.429 50.065 205.238 39.995 196.857 31.635C188.476 23.275 178.381 19.095 166.571 19.095H0V0H166.571C183.714 0 198.286 6.07999 210.286 18.24C222.476 30.21 228.571 44.745 228.571 61.845Z" fill="#383727"/>
<path d="M319.143 33.345C341.429 11.115 368.381 0 400 0C431.619 0 458.571 11.115 480.857 33.345C503.143 55.575 514.286 82.46 514.286 114C514.286 145.54 503.143 172.425 480.857 194.655C458.571 216.885 431.619 228 400 228C368.381 228 341.429 216.885 319.143 194.655C296.857 172.425 285.714 145.54 285.714 114C285.714 82.46 296.857 55.575 319.143 33.345ZM352.286 196.365C366.952 204.725 382.857 208.905 400 208.905C417.143 208.905 433.048 204.725 447.714 196.365C462.381 187.815 473.905 176.225 482.286 161.595C490.857 146.965 495.143 131.1 495.143 114C495.143 96.9 490.857 81.035 482.286 66.405C473.905 51.775 462.381 40.28 447.714 31.92C433.048 23.37 417.143 19.095 400 19.095C382.857 19.095 366.952 23.37 352.286 31.92C337.619 40.28 326 51.775 317.429 66.405C309.048 81.035 304.857 96.9 304.857 114C304.857 131.1 309.048 146.965 317.429 161.595C326 176.225 337.619 187.815 352.286 196.365ZM410 104.025C412.857 106.685 414.286 110.01 414.286 114C414.286 117.99 412.857 121.41 410 124.26C407.333 126.92 404 128.25 400 128.25C396 128.25 392.571 126.92 389.714 124.26C387.048 121.41 385.714 117.99 385.714 114C385.714 110.01 387.048 106.685 389.714 104.025C392.571 101.175 396 99.75 400 99.75C404 99.75 407.333 101.175 410 104.025Z" fill="#383727"/>
<path d="M780.857 104.31V0H800V228H780.857V123.69H590.571V228H571.429V0H590.571V104.31H780.857Z" fill="#383727"/>
</svg>
