<svg width="361" height="513" viewBox="0 0 361 513" fill="none" xmlns="http://www.w3.org/2000/svg">
<line x1="0.40875" y1="0.712035" x2="360.409" y2="511.712" stroke="#85836A"/>
<line x1="0.59061" y1="512.713" x2="359.591" y2="0.712969" stroke="#85836A"/>
<circle opacity="0.5" cx="180" cy="257" r="179.5" stroke="#85836A"/>
<path opacity="0.5" d="M271.5 166.5C271.5 216.203 230.984 256.5 181 256.5C131.016 256.5 90.5 216.203 90.5 166.5C90.5 116.797 131.016 76.5 181 76.5C230.984 76.5 271.5 116.797 271.5 166.5Z" stroke="#85836A"/>
<path opacity="0.5" d="M271.5 347C271.5 396.424 230.987 436.5 181 436.5C131.013 436.5 90.5 396.424 90.5 347C90.5 297.576 131.013 257.5 181 257.5C230.987 257.5 271.5 297.576 271.5 347Z" stroke="#85836A"/>
</svg>
